<svg width="134" height="35" viewBox="0 0 134 35" fill="none" xmlns="http://www.w3.org/2000/svg">
<path d="M15.45 7.14999V2.89999H2.05V32.1H15.45V27.85C12.705 27.85 10.0724 26.7595 8.13144 24.8185C6.19044 22.8775 5.1 20.245 5.1 17.5C5.1 14.755 6.19044 12.1224 8.13144 10.1814C10.0724 8.24044 12.705 7.14999 15.45 7.14999Z" fill="white"/>
<path d="M15.45 7.14999V27.85C18.195 27.85 20.8276 26.7595 22.7686 24.8185C24.7096 22.8775 25.8 20.245 25.8 17.5C25.8 14.755 24.7096 12.1224 22.7686 10.1814C20.8276 8.24044 18.195 7.14999 15.45 7.14999Z" fill="white"/>
<path d="M33.32 9.75H36.32V24.2H33.32V9.75Z" fill="white"/>
<path d="M38 19.25C38 18.2104 38.3087 17.1942 38.8869 16.3302C39.4651 15.4662 40.2868 14.7933 41.2479 14.3968C42.209 14.0004 43.2661 13.8982 44.2853 14.1032C45.3045 14.3082 46.2399 14.8112 46.9729 15.5484C47.7059 16.2857 48.2036 17.2239 48.4028 18.2443C48.6019 19.2647 48.4937 20.3212 48.0917 21.28C47.6897 22.2387 47.0122 23.0566 46.1449 23.6298C45.2776 24.2031 44.2596 24.5059 43.22 24.5C42.5305 24.5054 41.8468 24.3731 41.2091 24.1107C40.5714 23.8484 39.9924 23.4614 39.5062 22.9725C39.02 22.4835 38.6364 21.9023 38.3777 21.2631C38.1191 20.6239 37.9907 19.9395 38 19.25ZM45.52 19.25C45.5082 18.8018 45.3645 18.367 45.1069 18.0001C44.8493 17.6331 44.4893 17.3502 44.0717 17.1868C43.6542 17.0234 43.1978 16.9867 42.7596 17.0814C42.3213 17.176 41.9207 17.3977 41.6078 17.7189C41.2949 18.04 41.0836 18.4462 41.0004 18.8868C40.9172 19.3274 40.9657 19.7827 41.1399 20.1958C41.3141 20.6089 41.6062 20.9616 41.9798 21.2095C42.3533 21.4575 42.7916 21.5898 43.24 21.59C43.5453 21.596 43.8485 21.5389 44.1307 21.4223C44.4129 21.3058 44.668 21.1323 44.8801 20.9127C45.0922 20.6931 45.2567 20.432 45.3634 20.146C45.4701 19.8599 45.5166 19.5549 45.5 19.25H45.52Z" fill="white"/>
<path d="M60.31 14.3V23.71C60.31 27.03 57.71 28.44 55.08 28.44C54.1523 28.5161 53.2218 28.3318 52.3933 27.9078C51.5647 27.4838 50.8709 26.8369 50.39 26.04L52.92 24.58C53.125 24.9934 53.4511 25.3344 53.8549 25.5577C54.2587 25.781 54.7209 25.876 55.18 25.83C55.4725 25.866 55.7693 25.837 56.0492 25.745C56.3292 25.6529 56.5853 25.5002 56.7993 25.2976C57.0134 25.095 57.18 24.8477 57.2873 24.5732C57.3946 24.2988 57.4399 24.004 57.42 23.71V22.8C57.0709 23.2233 56.6279 23.5593 56.1263 23.7815C55.6246 24.0037 55.0781 24.1059 54.53 24.08C53.2039 24.08 51.9322 23.5532 50.9945 22.6155C50.0568 21.6779 49.53 20.4061 49.53 19.08C49.53 17.7539 50.0568 16.4822 50.9945 15.5445C51.9322 14.6068 53.2039 14.08 54.53 14.08C55.0781 14.0541 55.6246 14.1563 56.1263 14.3785C56.6279 14.6007 57.0709 14.9367 57.42 15.36V14.36L60.31 14.3ZM57.42 19.05C57.4399 18.5716 57.3163 18.0981 57.065 17.6905C56.8137 17.2829 56.4463 16.9598 56.0098 16.7627C55.5734 16.5656 55.0881 16.5036 54.6161 16.5846C54.1442 16.6656 53.7072 16.8859 53.3615 17.2172C53.0158 17.5485 52.7771 17.9757 52.6761 18.4438C52.5751 18.9119 52.6164 19.3994 52.7947 19.8438C52.9731 20.2882 53.2803 20.6691 53.6768 20.9375C54.0734 21.2059 54.5412 21.3496 55.02 21.35C55.3325 21.3725 55.6462 21.3292 55.9408 21.223C56.2355 21.1167 56.5047 20.9498 56.7308 20.733C56.957 20.5163 57.1352 20.2545 57.2539 19.9646C57.3726 19.6747 57.4292 19.3631 57.42 19.05Z" fill="white"/>
<path d="M62 19.25C62 18.2112 62.3082 17.1958 62.8855 16.3322C63.4628 15.4686 64.2833 14.7957 65.2432 14.3987C66.2031 14.0016 67.2592 13.8982 68.2779 14.1016C69.2966 14.305 70.232 14.806 70.9659 15.5412C71.6997 16.2765 72.1989 17.2129 72.4003 18.2319C72.6018 19.251 72.4964 20.3069 72.0975 21.266C71.6986 22.2252 71.0241 23.0444 70.1595 23.6201C69.2948 24.1958 68.2788 24.502 67.24 24.5C66.5492 24.5067 65.8639 24.3754 65.2245 24.1138C64.5851 23.8522 64.0043 23.4656 63.5163 22.9766C63.0282 22.4876 62.6427 21.9061 62.3823 21.2662C62.122 20.6263 61.992 19.9408 62 19.25ZM69.52 19.25C69.5082 18.8014 69.3642 18.3662 69.1062 17.999C68.8482 17.6319 68.4875 17.349 68.0694 17.1859C67.6513 17.0228 67.1944 16.9867 66.7559 17.0822C66.3174 17.1776 65.9168 17.4004 65.6043 17.7225C65.2918 18.0446 65.0813 18.4518 64.9993 18.893C64.9172 19.3342 64.9671 19.7898 65.1428 20.2027C65.3185 20.6157 65.6122 20.9676 65.9871 21.2144C66.3619 21.4611 66.8012 21.5918 67.25 21.59C67.5553 21.596 67.8585 21.5389 68.1407 21.4223C68.4229 21.3058 68.678 21.1323 68.8901 20.9127C69.1022 20.6931 69.2667 20.432 69.3734 20.146C69.4801 19.8599 69.5266 19.5549 69.51 19.25H69.52Z" fill="white"/>
<path d="M73.87 11.65C73.87 11.298 73.9744 10.9538 74.17 10.6611C74.3656 10.3684 74.6436 10.1402 74.9688 10.0055C75.2941 9.87077 75.652 9.83552 75.9973 9.9042C76.3425 9.97288 76.6597 10.1424 76.9087 10.3914C77.1576 10.6403 77.3271 10.9575 77.3958 11.3027C77.4645 11.648 77.4292 12.0059 77.2945 12.3312C77.1598 12.6564 76.9316 12.9344 76.6389 13.13C76.3462 13.3256 76.0021 13.43 75.65 13.43C75.1795 13.4248 74.7298 13.2356 74.3971 12.9029C74.0644 12.5702 73.8752 12.1205 73.87 11.65ZM74.16 14.3H77.16V24.2H74.16V14.3Z" fill="white"/>
<path d="M90 19.25C90.0336 19.9084 89.9367 20.567 89.7148 21.1878C89.493 21.8086 89.1505 22.3794 88.7072 22.8673C88.2638 23.3553 87.7284 23.7507 87.1316 24.0309C86.5349 24.3111 85.8886 24.4705 85.23 24.5C84.6711 24.5372 84.111 24.4477 83.5916 24.2382C83.0721 24.0286 82.6067 23.7045 82.23 23.29V28.18H79.23V14.3H82.23V15.23C82.6072 14.8167 83.073 14.4941 83.5925 14.2863C84.112 14.0784 84.6718 13.9908 85.23 14.03C85.886 14.0595 86.5297 14.218 87.1244 14.4963C87.7191 14.7746 88.2532 15.1674 88.6961 15.6521C89.1391 16.1368 89.4822 16.704 89.7059 17.3214C89.9296 17.9387 90.0296 18.594 90 19.25ZM87 19.25C86.9882 18.7855 86.8395 18.3349 86.5727 17.9546C86.3059 17.5743 85.9327 17.2811 85.5 17.112C85.0673 16.9428 84.5943 16.9052 84.1402 17.0037C83.6862 17.1022 83.2714 17.3326 82.9477 17.6659C82.624 17.9992 82.4059 18.4206 82.3208 18.8774C82.2356 19.3341 82.2871 19.8058 82.4689 20.2334C82.6507 20.6609 82.9546 21.0253 83.3426 21.2809C83.7306 21.5365 84.1854 21.6718 84.65 21.67C84.9682 21.6835 85.2857 21.6296 85.5816 21.5118C85.8776 21.394 86.1453 21.215 86.3672 20.9865C86.5891 20.758 86.7601 20.4851 86.8692 20.1859C86.9783 19.8866 87.0228 19.5677 87 19.25Z" fill="white"/>
<path d="M99.13 21.23C99.13 23.51 97.13 24.48 95.01 24.48C94.1453 24.5578 93.2772 24.3745 92.5178 23.9538C91.7584 23.5331 91.1426 22.8943 90.75 22.12L93.33 20.66C93.4322 21.0168 93.6538 21.3277 93.9578 21.5407C94.2618 21.7537 94.6297 21.8558 95 21.83C95.71 21.83 96.07 21.61 96.07 21.21C96.07 20.12 91.2 20.7 91.2 17.27C91.2 15.11 93.02 14.03 95.08 14.03C95.863 13.9949 96.641 14.1726 97.3311 14.5441C98.0213 14.9156 98.598 15.4671 99 16.14L96.42 17.5C96.306 17.242 96.1198 17.0226 95.8838 16.8682C95.6477 16.7138 95.372 16.6311 95.09 16.63C94.57 16.63 94.26 16.83 94.26 17.18C94.26 18.32 99.13 17.57 99.13 21.23Z" fill="white"/>
<path d="M110 14.3V24.2H107V23.27C106.659 23.6817 106.226 24.0074 105.737 24.2211C105.247 24.4348 104.714 24.5303 104.18 24.5C102.18 24.5 100.47 23.07 100.47 20.4V14.3H103.47V19.95C103.446 20.1862 103.474 20.4247 103.552 20.6491C103.63 20.8734 103.755 21.0782 103.919 21.2494C104.084 21.4205 104.284 21.5539 104.505 21.6404C104.726 21.7268 104.963 21.7642 105.2 21.75C106.28 21.75 107.04 21.11 107.04 19.75V14.3H110Z" fill="white"/>
<path d="M127 18.12V24.2H124V18.38C124 17.38 123.53 16.76 122.58 16.76C121.63 16.76 121.03 17.45 121.03 18.62V24.2H118.03V18.38C118.03 17.38 117.56 16.76 116.61 16.76C115.66 16.76 115.06 17.45 115.06 18.62V24.2H112.06V14.3H115.06V15.21C115.371 14.808 115.776 14.4896 116.241 14.2836C116.705 14.0776 117.214 13.9904 117.72 14.03C118.227 14.0035 118.733 14.1095 119.187 14.3374C119.641 14.5653 120.028 14.9074 120.31 15.33C120.64 14.8884 121.076 14.5376 121.578 14.3103C122.079 14.0829 122.631 13.9865 123.18 14.03C125.52 14.03 127 15.65 127 18.12Z" fill="white"/>
<path d="M129.52 14.24C130.735 14.24 131.72 13.255 131.72 12.04C131.72 10.825 130.735 9.84 129.52 9.84C128.305 9.84 127.32 10.825 127.32 12.04C127.32 13.255 128.305 14.24 129.52 14.24Z" fill="white"/>
</svg>
